<mxfile host="Electron" modified="2023-07-31T14:23:03.059Z" agent="Mozilla/5.0 (Macintosh; Intel Mac OS X 10_15_7) AppleWebKit/537.36 (KHTML, like Gecko) draw.io/21.6.5 Chrome/114.0.5735.243 Electron/25.3.1 Safari/537.36" etag="eAHcaWNLPaxVxsrGKvR5" version="21.6.5" type="device">
  <diagram name="Seite-1" id="U3dY17I3DXSGzEJLcEB8">
    <mxGraphModel dx="1114" dy="836" grid="1" gridSize="10" guides="1" tooltips="1" connect="1" arrows="1" fold="1" page="1" pageScale="1" pageWidth="827" pageHeight="1169" math="0" shadow="0">
      <root>
        <mxCell id="0" />
        <mxCell id="1" parent="0" />
        <mxCell id="JLBDE2m9S7MyqyU1WTmx-3" style="edgeStyle=orthogonalEdgeStyle;rounded=0;orthogonalLoop=1;jettySize=auto;html=1;entryX=0.5;entryY=0;entryDx=0;entryDy=0;" edge="1" parent="1" source="JLBDE2m9S7MyqyU1WTmx-1" target="JLBDE2m9S7MyqyU1WTmx-4">
          <mxGeometry relative="1" as="geometry">
            <mxPoint x="407.5" y="280" as="targetPoint" />
          </mxGeometry>
        </mxCell>
        <mxCell id="JLBDE2m9S7MyqyU1WTmx-1" value="update status request&lt;br&gt;input: newStatus" style="text;html=1;strokeColor=none;fillColor=none;align=center;verticalAlign=middle;whiteSpace=wrap;rounded=0;" vertex="1" parent="1">
          <mxGeometry x="341.13" y="190" width="133.75" height="50" as="geometry" />
        </mxCell>
        <mxCell id="JLBDE2m9S7MyqyU1WTmx-7" style="edgeStyle=orthogonalEdgeStyle;rounded=0;orthogonalLoop=1;jettySize=auto;html=1;entryX=0;entryY=0.5;entryDx=0;entryDy=0;" edge="1" parent="1" source="JLBDE2m9S7MyqyU1WTmx-4" target="JLBDE2m9S7MyqyU1WTmx-10">
          <mxGeometry relative="1" as="geometry">
            <mxPoint x="514" y="360" as="targetPoint" />
            <Array as="points">
              <mxPoint x="504" y="326" />
              <mxPoint x="504" y="326" />
            </Array>
          </mxGeometry>
        </mxCell>
        <mxCell id="JLBDE2m9S7MyqyU1WTmx-8" value="false" style="edgeLabel;html=1;align=center;verticalAlign=middle;resizable=0;points=[];" vertex="1" connectable="0" parent="JLBDE2m9S7MyqyU1WTmx-7">
          <mxGeometry x="0.1881" y="1" relative="1" as="geometry">
            <mxPoint x="-7" y="1" as="offset" />
          </mxGeometry>
        </mxCell>
        <mxCell id="JLBDE2m9S7MyqyU1WTmx-71" style="edgeStyle=orthogonalEdgeStyle;rounded=0;orthogonalLoop=1;jettySize=auto;html=1;entryX=0.5;entryY=0;entryDx=0;entryDy=0;" edge="1" parent="1" source="JLBDE2m9S7MyqyU1WTmx-4" target="JLBDE2m9S7MyqyU1WTmx-66">
          <mxGeometry relative="1" as="geometry" />
        </mxCell>
        <mxCell id="JLBDE2m9S7MyqyU1WTmx-73" value="yes" style="edgeLabel;html=1;align=center;verticalAlign=middle;resizable=0;points=[];" vertex="1" connectable="0" parent="JLBDE2m9S7MyqyU1WTmx-71">
          <mxGeometry x="0.1929" relative="1" as="geometry">
            <mxPoint as="offset" />
          </mxGeometry>
        </mxCell>
        <mxCell id="JLBDE2m9S7MyqyU1WTmx-4" value="requestedStatus&lt;br&gt;is equal to newStatus?" style="rhombus;whiteSpace=wrap;html=1;aspect=fixed;" vertex="1" parent="1">
          <mxGeometry x="348" y="266" width="120" height="120" as="geometry" />
        </mxCell>
        <mxCell id="JLBDE2m9S7MyqyU1WTmx-74" style="edgeStyle=orthogonalEdgeStyle;rounded=0;orthogonalLoop=1;jettySize=auto;html=1;entryX=1;entryY=0.5;entryDx=0;entryDy=0;" edge="1" parent="1" source="JLBDE2m9S7MyqyU1WTmx-9" target="JLBDE2m9S7MyqyU1WTmx-66">
          <mxGeometry relative="1" as="geometry" />
        </mxCell>
        <mxCell id="JLBDE2m9S7MyqyU1WTmx-9" value="set requestedStatus to newStatus" style="text;html=1;strokeColor=none;fillColor=none;align=center;verticalAlign=middle;whiteSpace=wrap;rounded=0;" vertex="1" parent="1">
          <mxGeometry x="558" y="408" width="107" height="50" as="geometry" />
        </mxCell>
        <mxCell id="JLBDE2m9S7MyqyU1WTmx-12" style="edgeStyle=orthogonalEdgeStyle;rounded=0;orthogonalLoop=1;jettySize=auto;html=1;entryX=0.5;entryY=0;entryDx=0;entryDy=0;" edge="1" parent="1" source="JLBDE2m9S7MyqyU1WTmx-10" target="JLBDE2m9S7MyqyU1WTmx-9">
          <mxGeometry relative="1" as="geometry" />
        </mxCell>
        <mxCell id="JLBDE2m9S7MyqyU1WTmx-10" value="reset all approvals" style="text;html=1;strokeColor=none;fillColor=none;align=center;verticalAlign=middle;whiteSpace=wrap;rounded=0;" vertex="1" parent="1">
          <mxGeometry x="558" y="311" width="107" height="30" as="geometry" />
        </mxCell>
        <mxCell id="JLBDE2m9S7MyqyU1WTmx-14" style="edgeStyle=orthogonalEdgeStyle;rounded=0;orthogonalLoop=1;jettySize=auto;html=1;exitX=0.5;exitY=1;exitDx=0;exitDy=0;entryX=0.5;entryY=0;entryDx=0;entryDy=0;" edge="1" parent="1" source="JLBDE2m9S7MyqyU1WTmx-13" target="JLBDE2m9S7MyqyU1WTmx-29">
          <mxGeometry relative="1" as="geometry">
            <mxPoint x="408.3478260869565" y="680" as="targetPoint" />
          </mxGeometry>
        </mxCell>
        <mxCell id="JLBDE2m9S7MyqyU1WTmx-15" value="TO_BE_DELIVERED -&amp;gt; IN_TRANSIT" style="edgeLabel;html=1;align=center;verticalAlign=middle;resizable=0;points=[];" vertex="1" connectable="0" parent="JLBDE2m9S7MyqyU1WTmx-14">
          <mxGeometry x="-0.2298" relative="1" as="geometry">
            <mxPoint as="offset" />
          </mxGeometry>
        </mxCell>
        <mxCell id="JLBDE2m9S7MyqyU1WTmx-16" style="edgeStyle=orthogonalEdgeStyle;rounded=0;orthogonalLoop=1;jettySize=auto;html=1;entryX=0.5;entryY=0;entryDx=0;entryDy=0;" edge="1" parent="1" source="JLBDE2m9S7MyqyU1WTmx-13" target="JLBDE2m9S7MyqyU1WTmx-30">
          <mxGeometry relative="1" as="geometry">
            <mxPoint x="644" y="680" as="targetPoint" />
          </mxGeometry>
        </mxCell>
        <mxCell id="JLBDE2m9S7MyqyU1WTmx-17" value="IN_TRANSIT -&amp;gt; DELIVERED" style="edgeLabel;html=1;align=center;verticalAlign=middle;resizable=0;points=[];" vertex="1" connectable="0" parent="JLBDE2m9S7MyqyU1WTmx-16">
          <mxGeometry x="0.1482" relative="1" as="geometry">
            <mxPoint x="-70" as="offset" />
          </mxGeometry>
        </mxCell>
        <mxCell id="JLBDE2m9S7MyqyU1WTmx-18" style="edgeStyle=orthogonalEdgeStyle;rounded=0;orthogonalLoop=1;jettySize=auto;html=1;entryX=0.5;entryY=0;entryDx=0;entryDy=0;" edge="1" parent="1" source="JLBDE2m9S7MyqyU1WTmx-13" target="JLBDE2m9S7MyqyU1WTmx-28">
          <mxGeometry relative="1" as="geometry">
            <mxPoint x="154" y="680" as="targetPoint" />
            <mxPoint x="398" y="570.0000000000002" as="sourcePoint" />
            <Array as="points">
              <mxPoint x="154" y="580" />
            </Array>
          </mxGeometry>
        </mxCell>
        <mxCell id="JLBDE2m9S7MyqyU1WTmx-25" value="revert" style="text;html=1;align=center;verticalAlign=middle;resizable=0;points=[];autosize=1;strokeColor=#b85450;fillColor=#f8cecc;" vertex="1" parent="1">
          <mxGeometry x="214" y="490" width="50" height="30" as="geometry" />
        </mxCell>
        <mxCell id="JLBDE2m9S7MyqyU1WTmx-32" style="edgeStyle=orthogonalEdgeStyle;rounded=0;orthogonalLoop=1;jettySize=auto;html=1;entryX=0;entryY=0.5;entryDx=0;entryDy=0;" edge="1" parent="1" source="JLBDE2m9S7MyqyU1WTmx-28" target="JLBDE2m9S7MyqyU1WTmx-31">
          <mxGeometry relative="1" as="geometry">
            <Array as="points">
              <mxPoint x="154" y="875" />
            </Array>
          </mxGeometry>
        </mxCell>
        <mxCell id="JLBDE2m9S7MyqyU1WTmx-37" value="yes" style="edgeLabel;html=1;align=center;verticalAlign=middle;resizable=0;points=[];" vertex="1" connectable="0" parent="JLBDE2m9S7MyqyU1WTmx-32">
          <mxGeometry x="-0.6306" y="2" relative="1" as="geometry">
            <mxPoint x="-2" y="-29" as="offset" />
          </mxGeometry>
        </mxCell>
        <mxCell id="JLBDE2m9S7MyqyU1WTmx-41" style="edgeStyle=orthogonalEdgeStyle;rounded=0;orthogonalLoop=1;jettySize=auto;html=1;entryX=0;entryY=0.5;entryDx=0;entryDy=0;" edge="1" parent="1" source="JLBDE2m9S7MyqyU1WTmx-28" target="JLBDE2m9S7MyqyU1WTmx-64">
          <mxGeometry relative="1" as="geometry">
            <mxPoint x="232.5" y="715.0000000000001" as="targetPoint" />
          </mxGeometry>
        </mxCell>
        <mxCell id="JLBDE2m9S7MyqyU1WTmx-42" value="no" style="edgeLabel;html=1;align=center;verticalAlign=middle;resizable=0;points=[];" vertex="1" connectable="0" parent="JLBDE2m9S7MyqyU1WTmx-41">
          <mxGeometry x="-0.0975" y="-3" relative="1" as="geometry">
            <mxPoint y="-4" as="offset" />
          </mxGeometry>
        </mxCell>
        <mxCell id="JLBDE2m9S7MyqyU1WTmx-28" value="owner&lt;br&gt;approved ?" style="rhombus;whiteSpace=wrap;html=1;spacing=0;fontSize=12;" vertex="1" parent="1">
          <mxGeometry x="104" y="670" width="100" height="100" as="geometry" />
        </mxCell>
        <mxCell id="JLBDE2m9S7MyqyU1WTmx-34" style="edgeStyle=orthogonalEdgeStyle;rounded=0;orthogonalLoop=1;jettySize=auto;html=1;entryX=1;entryY=0.5;entryDx=0;entryDy=0;exitX=0.5;exitY=1;exitDx=0;exitDy=0;" edge="1" parent="1" source="JLBDE2m9S7MyqyU1WTmx-30" target="JLBDE2m9S7MyqyU1WTmx-31">
          <mxGeometry relative="1" as="geometry">
            <Array as="points">
              <mxPoint x="674" y="875" />
            </Array>
          </mxGeometry>
        </mxCell>
        <mxCell id="JLBDE2m9S7MyqyU1WTmx-38" value="yes" style="edgeLabel;html=1;align=center;verticalAlign=middle;resizable=0;points=[];" vertex="1" connectable="0" parent="JLBDE2m9S7MyqyU1WTmx-34">
          <mxGeometry x="-0.0086" relative="1" as="geometry">
            <mxPoint x="61" y="-75" as="offset" />
          </mxGeometry>
        </mxCell>
        <mxCell id="JLBDE2m9S7MyqyU1WTmx-43" style="edgeStyle=orthogonalEdgeStyle;rounded=0;orthogonalLoop=1;jettySize=auto;html=1;entryX=1;entryY=0.5;entryDx=0;entryDy=0;" edge="1" parent="1" source="JLBDE2m9S7MyqyU1WTmx-30" target="JLBDE2m9S7MyqyU1WTmx-64">
          <mxGeometry relative="1" as="geometry">
            <mxPoint x="344.15" y="715.5999999999999" as="targetPoint" />
            <Array as="points" />
          </mxGeometry>
        </mxCell>
        <mxCell id="JLBDE2m9S7MyqyU1WTmx-47" value="no" style="edgeLabel;html=1;align=center;verticalAlign=middle;resizable=0;points=[];" vertex="1" connectable="0" parent="JLBDE2m9S7MyqyU1WTmx-43">
          <mxGeometry x="-0.6711" relative="1" as="geometry">
            <mxPoint x="-26" y="-1" as="offset" />
          </mxGeometry>
        </mxCell>
        <mxCell id="JLBDE2m9S7MyqyU1WTmx-48" value="no" style="edgeLabel;html=1;align=center;verticalAlign=middle;resizable=0;points=[];" vertex="1" connectable="0" parent="JLBDE2m9S7MyqyU1WTmx-43">
          <mxGeometry x="0.6418" relative="1" as="geometry">
            <mxPoint x="-25" y="-1" as="offset" />
          </mxGeometry>
        </mxCell>
        <mxCell id="JLBDE2m9S7MyqyU1WTmx-30" value="carrier and recipient approved?" style="rhombus;whiteSpace=wrap;html=1;" vertex="1" parent="1">
          <mxGeometry x="624" y="670" width="100" height="100" as="geometry" />
        </mxCell>
        <mxCell id="JLBDE2m9S7MyqyU1WTmx-52" style="edgeStyle=orthogonalEdgeStyle;rounded=0;orthogonalLoop=1;jettySize=auto;html=1;entryX=0.5;entryY=0;entryDx=0;entryDy=0;" edge="1" parent="1" source="JLBDE2m9S7MyqyU1WTmx-31" target="JLBDE2m9S7MyqyU1WTmx-36">
          <mxGeometry relative="1" as="geometry" />
        </mxCell>
        <mxCell id="JLBDE2m9S7MyqyU1WTmx-31" value="reset approvals" style="text;html=1;strokeColor=none;fillColor=none;align=center;verticalAlign=middle;whiteSpace=wrap;rounded=0;spacing=5;" vertex="1" parent="1">
          <mxGeometry x="371" y="860" width="73" height="30" as="geometry" />
        </mxCell>
        <mxCell id="JLBDE2m9S7MyqyU1WTmx-36" value="update currentStatus of the artwork" style="text;html=1;strokeColor=#82b366;fillColor=#d5e8d4;align=center;verticalAlign=middle;whiteSpace=wrap;rounded=0;" vertex="1" parent="1">
          <mxGeometry x="361" y="930" width="93" height="50" as="geometry" />
        </mxCell>
        <mxCell id="JLBDE2m9S7MyqyU1WTmx-40" style="edgeStyle=orthogonalEdgeStyle;rounded=0;orthogonalLoop=1;jettySize=auto;html=1;entryX=0.5;entryY=0;entryDx=0;entryDy=0;" edge="1" parent="1" source="JLBDE2m9S7MyqyU1WTmx-39" target="JLBDE2m9S7MyqyU1WTmx-13">
          <mxGeometry relative="1" as="geometry" />
        </mxCell>
        <mxCell id="JLBDE2m9S7MyqyU1WTmx-39" value="set sender approval" style="text;html=1;strokeColor=none;fillColor=none;align=center;verticalAlign=middle;whiteSpace=wrap;rounded=0;" vertex="1" parent="1">
          <mxGeometry x="378" y="470" width="60" height="30" as="geometry" />
        </mxCell>
        <mxCell id="JLBDE2m9S7MyqyU1WTmx-53" style="edgeStyle=orthogonalEdgeStyle;rounded=0;orthogonalLoop=1;jettySize=auto;html=1;entryX=0.5;entryY=0;entryDx=0;entryDy=0;" edge="1" parent="1" source="JLBDE2m9S7MyqyU1WTmx-29" target="JLBDE2m9S7MyqyU1WTmx-31">
          <mxGeometry relative="1" as="geometry">
            <Array as="points">
              <mxPoint x="408" y="820" />
              <mxPoint x="408" y="820" />
            </Array>
          </mxGeometry>
        </mxCell>
        <mxCell id="JLBDE2m9S7MyqyU1WTmx-54" value="yes" style="edgeLabel;html=1;align=center;verticalAlign=middle;resizable=0;points=[];" vertex="1" connectable="0" parent="JLBDE2m9S7MyqyU1WTmx-53">
          <mxGeometry x="-0.2888" relative="1" as="geometry">
            <mxPoint y="-2" as="offset" />
          </mxGeometry>
        </mxCell>
        <mxCell id="JLBDE2m9S7MyqyU1WTmx-29" value="carrier and&lt;br&gt;owner &lt;br&gt;approved ?" style="rhombus;spacing=0;html=1;whiteSpace=wrap;" vertex="1" parent="1">
          <mxGeometry x="357" y="670" width="100" height="100" as="geometry" />
        </mxCell>
        <mxCell id="JLBDE2m9S7MyqyU1WTmx-49" value="approval missing" style="text;html=1;strokeColor=#d6b656;fillColor=#fff2cc;align=center;verticalAlign=middle;whiteSpace=wrap;rounded=0;" vertex="1" parent="1">
          <mxGeometry x="249" y="780" width="60" height="30" as="geometry" />
        </mxCell>
        <mxCell id="JLBDE2m9S7MyqyU1WTmx-59" value="" style="edgeStyle=orthogonalEdgeStyle;rounded=0;orthogonalLoop=1;jettySize=auto;html=1;entryX=0.5;entryY=0;entryDx=0;entryDy=0;" edge="1" parent="1" target="JLBDE2m9S7MyqyU1WTmx-13">
          <mxGeometry relative="1" as="geometry">
            <mxPoint x="154" y="670" as="targetPoint" />
            <mxPoint x="398" y="570.0000000000002" as="sourcePoint" />
            <Array as="points" />
          </mxGeometry>
        </mxCell>
        <mxCell id="JLBDE2m9S7MyqyU1WTmx-60" value="DELIVERED -&amp;gt; TO_BE_DELIVERED" style="edgeLabel;html=1;align=center;verticalAlign=middle;resizable=0;points=[];" vertex="1" connectable="0" parent="JLBDE2m9S7MyqyU1WTmx-59">
          <mxGeometry x="-0.1968" y="-1" relative="1" as="geometry">
            <mxPoint x="-154" y="-4" as="offset" />
          </mxGeometry>
        </mxCell>
        <mxCell id="JLBDE2m9S7MyqyU1WTmx-13" value="which status change?" style="rhombus;whiteSpace=wrap;html=1;" vertex="1" parent="1">
          <mxGeometry x="358" y="530" width="100" height="100" as="geometry" />
        </mxCell>
        <mxCell id="JLBDE2m9S7MyqyU1WTmx-61" value="" style="endArrow=classic;html=1;rounded=0;entryX=1.014;entryY=0.459;entryDx=0;entryDy=0;entryPerimeter=0;exitX=0;exitY=0;exitDx=0;exitDy=0;" edge="1" parent="1" source="JLBDE2m9S7MyqyU1WTmx-13" target="JLBDE2m9S7MyqyU1WTmx-25">
          <mxGeometry width="50" height="50" relative="1" as="geometry">
            <mxPoint x="434" y="540" as="sourcePoint" />
            <mxPoint x="484" y="490" as="targetPoint" />
          </mxGeometry>
        </mxCell>
        <mxCell id="JLBDE2m9S7MyqyU1WTmx-62" value="any other" style="edgeLabel;html=1;align=center;verticalAlign=middle;resizable=0;points=[];" vertex="1" connectable="0" parent="JLBDE2m9S7MyqyU1WTmx-61">
          <mxGeometry x="-0.0349" y="-1" relative="1" as="geometry">
            <mxPoint as="offset" />
          </mxGeometry>
        </mxCell>
        <mxCell id="JLBDE2m9S7MyqyU1WTmx-65" style="edgeStyle=orthogonalEdgeStyle;rounded=0;orthogonalLoop=1;jettySize=auto;html=1;entryX=0.5;entryY=0;entryDx=0;entryDy=0;" edge="1" parent="1" source="JLBDE2m9S7MyqyU1WTmx-64" target="JLBDE2m9S7MyqyU1WTmx-49">
          <mxGeometry relative="1" as="geometry" />
        </mxCell>
        <mxCell id="JLBDE2m9S7MyqyU1WTmx-64" value="" style="rhombus;" vertex="1" parent="1">
          <mxGeometry x="264" y="705" width="30" height="30" as="geometry" />
        </mxCell>
        <mxCell id="JLBDE2m9S7MyqyU1WTmx-75" style="edgeStyle=orthogonalEdgeStyle;rounded=0;orthogonalLoop=1;jettySize=auto;html=1;entryX=0.5;entryY=0;entryDx=0;entryDy=0;" edge="1" parent="1" source="JLBDE2m9S7MyqyU1WTmx-66" target="JLBDE2m9S7MyqyU1WTmx-39">
          <mxGeometry relative="1" as="geometry" />
        </mxCell>
        <mxCell id="JLBDE2m9S7MyqyU1WTmx-66" value="" style="rhombus;" vertex="1" parent="1">
          <mxGeometry x="393" y="418" width="30" height="30" as="geometry" />
        </mxCell>
      </root>
    </mxGraphModel>
  </diagram>
</mxfile>
